<svg width="24" height="24" viewBox="0 0 24 24" fill="none" xmlns="http://www.w3.org/2000/svg">
<path fill-rule="evenodd" clip-rule="evenodd" d="M14.691 2.53243C13.8499 2.18862 12.9314 2 11.9729 2C8.28625 2 5.19714 4.78874 4.82133 8.45616L4.54146 11.1874C4.51393 11.4561 4.50227 11.5686 4.48742 11.6782C4.37444 12.5114 4.11228 13.3174 3.71349 14.0576C3.66105 14.155 3.60427 14.2528 3.46846 14.4863L2.80888 15.6203L2.77579 15.6772L2.77578 15.6772C2.4507 16.236 2.15632 16.742 1.98044 17.1689C1.79732 17.6133 1.63593 18.2167 1.92239 18.8378C1.97258 18.9465 2.03243 19.0506 2.10124 19.1487C2.49402 19.7085 3.0968 19.8724 3.57304 19.9376C4.03045 20.0002 4.61585 20.0001 5.2623 20L5.32813 20H18.6257L18.6936 20C19.3596 20.0001 19.9625 20.0002 20.4321 19.9342C20.9224 19.8653 21.5413 19.6911 21.9302 19.1026C21.9757 19.0337 22.0169 18.9621 22.0536 18.8881C22.3668 18.256 22.2062 17.6335 22.0193 17.175C21.8402 16.7359 21.537 16.2148 21.2021 15.6392L21.2021 15.6391L21.168 15.5804L20.5196 14.4657C20.3717 14.2114 20.3099 14.1049 20.2531 13.9987C19.9023 13.3428 19.6584 12.6356 19.5303 11.9037C19.1965 11.9669 18.8521 12 18.5 12C18.1613 12 17.8297 11.9694 17.5079 11.9108C17.5135 11.9527 17.5192 11.9929 17.5252 12.033C17.678 13.0507 18.0042 14.0346 18.4896 14.9421C18.5652 15.0834 18.6458 15.2219 18.7808 15.4541L18.7808 15.4541L18.7908 15.4712L19.4391 16.586C19.8193 17.2396 20.0479 17.6375 20.1674 17.9303L20.1755 17.9505L20.1539 17.9536C19.8408 17.9976 19.3819 18 18.6257 18H5.32813C4.59422 18 4.1491 17.9978 3.84412 17.956L3.82073 17.9527L3.82961 17.9308C3.94688 17.6462 4.16873 17.2603 4.53772 16.6259L5.19729 15.4919L5.20646 15.4761C5.33047 15.2629 5.40446 15.1357 5.47423 15.0062C5.98696 14.0545 6.32403 13.0182 6.46928 11.9469C6.48904 11.8011 6.50404 11.6547 6.52918 11.4094L6.52919 11.4094L6.53104 11.3912L6.81091 8.66004C7.08217 6.01291 9.31188 4 11.9729 4C12.4995 4 13.0094 4.07888 13.4906 4.226C13.7813 3.58662 14.1909 3.0127 14.691 2.53243ZM17.2667 4.32489C16.654 4.67303 16.2029 5.27253 16.0535 5.98314C16.6286 6.71419 17.0129 7.6066 17.1271 8.58965C17.5212 8.84905 17.993 9 18.5 9C18.7344 9 18.9612 8.96775 19.1763 8.90745L19.1157 8.37521C18.9374 6.81081 18.2658 5.41131 17.2667 4.32489ZM20.2306 18.1296C20.2306 18.1295 20.2303 18.1278 20.2302 18.1246C20.2307 18.128 20.2307 18.1296 20.2306 18.1296ZM20.357 17.9085C20.3562 17.9089 20.355 17.9094 20.3535 17.9103C20.3567 17.9089 20.3581 17.9082 20.358 17.9082C20.358 17.9081 20.3576 17.9083 20.357 17.9085ZM3.64289 17.9122C3.64296 17.9122 3.64431 17.9127 3.64673 17.914C3.64402 17.9129 3.64281 17.9123 3.64289 17.9122ZM3.76631 18.1268C3.76638 18.1267 3.76659 18.1253 3.76674 18.1226C3.76651 18.1242 3.76639 18.1253 3.76633 18.126C3.76628 18.1266 3.76628 18.1268 3.76631 18.1268Z" fill="#55D2BE"/>
<path d="M9 19C9.17092 19.7442 9.64978 20.8077 10.1737 21.2767C10.6976 21.7458 11.3396 22 12 22C12.6604 22 13.3024 21.7458 13.8263 21.2767C14.3502 20.8077 14.8291 19.7442 15 19" stroke="#55D2BE" stroke-width="2" stroke-linecap="round"/>
<circle cx="18.5" cy="6.5" r="3" fill="#FC5D1E" stroke="#FC5D1E"/>
</svg>
