<svg width="24" height="24" viewBox="0 0 24 24" fill="none" xmlns="http://www.w3.org/2000/svg">
<path d="M9.03415 3.96154L9.75467 2.08308C9.87618 1.76503 10.09 1.49146 10.368 1.29821C10.6461 1.10495 10.9755 1.00101 11.313 1H12.687C13.0245 1.00101 13.3539 1.10495 13.632 1.29821C13.91 1.49146 14.1238 1.76503 14.2453 2.08308L14.9658 3.96154L17.4123 5.38308L19.3895 5.07846C19.7187 5.03333 20.0538 5.08806 20.3522 5.23572C20.6505 5.38337 20.8987 5.61727 21.0651 5.90769L21.7354 7.09231C21.9071 7.38736 21.9862 7.72807 21.9623 8.06948C21.9384 8.41089 21.8125 8.73694 21.6013 9.00462L20.3781 10.5785V13.4215L21.6348 14.9954C21.846 15.2631 21.9719 15.5891 21.9958 15.9305C22.0197 16.2719 21.9406 16.6126 21.7689 16.9077L21.0986 18.0923C20.9322 18.3827 20.684 18.6166 20.3857 18.7643C20.0873 18.9119 19.7522 18.9667 19.423 18.9215L17.4458 18.6169L14.9994 20.0385L14.2788 21.9169C14.1573 22.235 13.9435 22.5085 13.6655 22.7018C13.3874 22.8951 13.0581 22.999 12.7205 23H11.313C10.9755 22.999 10.6461 22.8951 10.368 22.7018C10.09 22.5085 9.87618 22.235 9.75467 21.9169L9.03415 20.0385L6.58774 18.6169L4.61051 18.9215C4.28128 18.9667 3.9462 18.9119 3.64784 18.7643C3.34948 18.6166 3.10132 18.3827 2.93489 18.0923L2.26464 16.9077C2.09289 16.6126 2.01376 16.2719 2.0377 15.9305C2.06163 15.5891 2.1875 15.2631 2.39869 14.9954L3.6219 13.4215V10.5785L2.36518 9.00462C2.15399 8.73694 2.02812 8.41089 2.00418 8.06948C1.98025 7.72807 2.05938 7.38736 2.23113 7.09231L2.90138 5.90769C3.06781 5.61727 3.31597 5.38337 3.61433 5.23572C3.91268 5.08806 4.24777 5.03333 4.577 5.07846L6.55423 5.38308L9.03415 3.96154ZM8.64876 12C8.64876 12.6694 8.84531 13.3238 9.21354 13.8804C9.58178 14.437 10.1052 14.8708 10.7175 15.127C11.3299 15.3832 12.0037 15.4502 12.6538 15.3196C13.3039 15.189 13.901 14.8666 14.3697 14.3933C14.8384 13.9199 15.1575 13.3169 15.2868 12.6603C15.4162 12.0038 15.3498 11.3232 15.0961 10.7048C14.8425 10.0863 14.413 9.5577 13.8618 9.1858C13.3107 8.81389 12.6628 8.61538 12 8.61538C11.1112 8.61538 10.2588 8.97198 9.63031 9.60672C9.00183 10.2415 8.64876 11.1023 8.64876 12Z" stroke="#55D2BE" stroke-width="2" stroke-linecap="round" stroke-linejoin="round"/>
</svg>
