<svg width="24" height="24" viewBox="0 0 24 24" fill="none" xmlns="http://www.w3.org/2000/svg">
<path fill-rule="evenodd" clip-rule="evenodd" d="M7.99995 6.99999C7.99995 4.79086 9.7908 3 11.9999 3C14.2091 3 15.9999 4.79086 15.9999 6.99999C15.9999 9.20912 14.2091 11 11.9999 11C9.7908 11 7.99995 9.20912 7.99995 6.99999ZM11.9999 1C8.68623 1 5.99995 3.68629 5.99995 6.99999C5.99995 10.3137 8.68623 13 11.9999 13C15.3136 13 17.9999 10.3137 17.9999 6.99999C17.9999 3.68629 15.3136 1 11.9999 1ZM12 14.0643C9.67307 14.0643 7.40627 14.8033 5.52638 16.1746C3.6465 17.5459 2.25065 19.4788 1.54008 21.6946C1.44254 21.9987 1.49618 22.3312 1.68443 22.5893C1.87268 22.8473 2.17289 22.9999 2.49232 22.9999H21.5077C21.8271 22.9999 22.1273 22.8473 22.3155 22.5893C22.5038 22.3312 22.5574 21.9987 22.4599 21.6946C21.7493 19.4788 20.3535 17.5459 18.4736 16.1746C16.5937 14.8033 14.3269 14.0643 12 14.0643ZM6.70505 17.7904C8.24266 16.6687 10.0967 16.0643 12 16.0643C13.9032 16.0643 15.7573 16.6687 17.2949 17.7904C18.4502 18.6332 19.382 19.7352 20.0205 20.9999H3.97946C4.61793 19.7352 5.54973 18.6332 6.70505 17.7904Z" fill="#55D2BE"/>
</svg>
